<?xml version="1.0" encoding="UTF-8" standalone="no"?>
<!-- Created with Inkscape (http://www.inkscape.org/) -->

<svg
   width="4000"
   height="350"
   viewBox="0 0 1058.3333 92.60417"
   version="1.1"
   id="svg1"
   inkscape:version="1.4.2 (ebf0e940d0, 2025-05-08)"
   sodipodi:docname="banner.svg"
   xml:space="preserve"
   xmlns:inkscape="http://www.inkscape.org/namespaces/inkscape"
   xmlns:sodipodi="http://sodipodi.sourceforge.net/DTD/sodipodi-0.dtd"
   xmlns:xlink="http://www.w3.org/1999/xlink"
   xmlns="http://www.w3.org/2000/svg"
   xmlns:svg="http://www.w3.org/2000/svg"><sodipodi:namedview
     id="namedview1"
     pagecolor="#4e4e4e"
     bordercolor="#000000"
     borderopacity="0.25"
     inkscape:showpageshadow="2"
     inkscape:pageopacity="0.0"
     inkscape:pagecheckerboard="0"
     inkscape:deskcolor="#d1d1d1"
     inkscape:document-units="mm"
     inkscape:zoom="0.5"
     inkscape:cx="2072"
     inkscape:cy="461"
     inkscape:window-width="2331"
     inkscape:window-height="1190"
     inkscape:window-x="26"
     inkscape:window-y="23"
     inkscape:window-maximized="0"
     inkscape:current-layer="g2" /><defs
     id="defs1"><linearGradient
       id="linearGradient12"
       inkscape:collect="always"><stop
         style="stop-color:#333333;stop-opacity:1;"
         offset="0"
         id="stop12" /><stop
         style="stop-color:#333333;stop-opacity:0;"
         offset="1"
         id="stop13" /></linearGradient><linearGradient
       id="linearGradient10"
       inkscape:collect="always"><stop
         style="stop-color:#343434;stop-opacity:1;"
         offset="0"
         id="stop10" /><stop
         style="stop-color:#3f3f3f;stop-opacity:1;"
         offset="1"
         id="stop11" /></linearGradient><linearGradient
       inkscape:collect="always"
       xlink:href="#linearGradient10"
       id="linearGradient11"
       x1="593.86322"
       y1="47.838814"
       x2="595.45074"
       y2="204.47215"
       gradientUnits="userSpaceOnUse"
       gradientTransform="translate(-24.4799,-81.705479)" /><linearGradient
       inkscape:collect="always"
       xlink:href="#linearGradient12"
       id="linearGradient13"
       x1="676.33588"
       y1="150.61546"
       x2="676.33588"
       y2="50.073795"
       gradientUnits="userSpaceOnUse" /></defs><rect
     style="opacity:1;fill:url(#linearGradient11);stroke-width:0.264583"
     id="rect4"
     width="1123.95"
     height="157.69167"
     x="-41.274998"
     y="-34.924999" /><g
     inkscape:label="Layer 1"
     inkscape:groupmode="layer"
     id="layer1"
     transform="translate(-24.4799,-81.705479)"><g
       id="g2"
       transform="translate(29.777845,23.973492)"
       style="fill:#333333"><path
         id="path2"
         style="opacity:1;fill:url(#linearGradient13);stroke:none;stroke-width:0.982201"
         d="m 814.45254,79.166338 c 0,0 -24.93975,26.408912 -39.4932,34.811312 -14.5534,8.40245 -30.84314,17.56792 -47.82706,17.56792 H 604.49016 c -0.53348,0.0507 -1.06611,0.10186 -1.59784,0.15451 h -55.23435 c -16.07505,0 -36.65146,-5.35316 -50.64136,-13.43019 -13.98993,-8.07712 -31.334,-23.60269 -31.334,-23.60269 h -30.27154 c 0,0 -24.93974,19.52975 -39.49319,27.93215 -14.5534,8.40245 -30.84366,9.10073 -47.82758,9.10073 H 247.868 c -15.20731,-2.25971 -33.20412,-14.23124 -45.83338,-21.52272 -13.98993,-8.07712 -31.33401,-30.481856 -31.33401,-30.481856 h -69.42987 c 0,0 -24.939743,26.408916 -39.493193,34.811316 -14.5534,8.40245 -30.843651,17.56792 -47.827571,17.56792 H -108.69215 c -15.98414,0 -34.87382,-9.44048 -48.37793,-17.99219 -13.82856,-8.7572 -36.1151,-33.270835 -36.1151,-33.270835 l -23.76238,26.193235 -23.76237,26.19323 19.44636,24.30808 330.58602,-4.81728 3.5543,4.44314 396.94632,-6.23218 c -11.32773,3.53137 -17.90485,6.07715 -17.90485,6.07715 l 330.16744,-4.81107 3.97289,4.9661 505.56755,-7.9375 v -17.49454 h -70.7863 c -16.0751,0 -36.651,-5.35316 -50.6409,-13.43019 -13.9899,-8.07712 -31.334,-23.60269 -31.334,-23.60269 h -30.272 c 0,0 -24.9397,19.52975 -39.4932,27.93215 -14.5534,8.40245 -30.8431,9.10073 -47.8271,9.10073 h -24.6285 v -0.15451 h -70.78634 c -16.07505,0 -36.65093,-13.82034 -50.64083,-21.89737 C 901.227,101.57108 883.88292,79.166338 883.88292,79.166338 Z" /></g></g></svg>
